<?xml version="1.0" encoding="UTF-8"?>
<!DOCTYPE svg PUBLIC "-//W3C//DTD SVG 1.1//EN" "http://www.w3.org/Graphics/SVG/1.1/DTD/svg11.dtd">
<svg xmlns="http://www.w3.org/2000/svg" version="1.1" width="436px" height="376px" style="shape-rendering:geometricPrecision; text-rendering:geometricPrecision; image-rendering:optimizeQuality; fill-rule:evenodd; clip-rule:evenodd" xmlns:xlink="http://www.w3.org/1999/xlink">
<g><path style="opacity:0.964" fill="#efefef" d="M 114.5,-0.5 C 117.5,-0.5 120.5,-0.5 123.5,-0.5C 128.654,3.79211 129.488,8.79211 126,14.5C 117.766,19.2007 112.266,17.034 109.5,8C 110.15,4.52834 111.816,1.695 114.5,-0.5 Z"/></g>
<g><path style="opacity:0.992" fill="#b4b2b1" d="M 342.5,20.5 C 343.496,20.4142 344.329,20.7476 345,21.5C 345.311,23.556 345.811,25.556 346.5,27.5C 349.413,28.5415 352.079,29.8749 354.5,31.5C 352.389,32.9488 350.056,33.9488 347.5,34.5C 346.458,37.4125 345.125,40.0792 343.5,42.5C 342.051,40.3894 341.051,38.0561 340.5,35.5C 337.541,34.4636 334.875,32.9636 332.5,31C 335.238,30.0173 337.905,28.8506 340.5,27.5C 341.17,25.1369 341.837,22.8036 342.5,20.5 Z"/></g>
<g><path style="opacity:0.992" fill="#f5f5f5" d="M 333.5,324.5 C 327.114,315.601 320.114,307.101 312.5,299C 310.5,298.667 308.5,298.333 306.5,298C 304.5,295.667 302.5,293.333 300.5,291C 305.101,285.283 308.768,279.116 311.5,272.5C 311.47,273.497 311.97,274.164 313,274.5C 318.347,273.153 321.68,269.82 323,264.5C 323.226,233.659 323.726,202.826 324.5,172C 324.497,169.31 324.164,166.81 323.5,164.5C 324.412,163.262 324.579,161.928 324,160.5C 309.167,147 294.333,133.5 279.5,120C 277.402,119.322 275.402,119.489 273.5,120.5C 217.335,119.335 161.001,119.168 104.5,120C 100.725,121.442 97.8917,123.942 96,127.5C 94.7164,166.276 93.8831,205.11 93.5,244C 93.6667,250.5 93.8333,257 94,263.5C 95.4329,268.598 98.5995,272.098 103.5,274C 137.498,274.5 171.498,274.667 205.5,274.5C 221.203,305.508 245.87,316.008 279.5,306C 283.191,303.981 286.858,302.314 290.5,301C 292.126,303.628 294.126,305.961 296.5,308C 295.409,310.064 295.242,312.231 296,314.5C 302.662,322.993 309.828,330.993 317.5,338.5C 300.188,352.826 280.521,362.992 258.5,369C 248.15,371.769 237.816,373.935 227.5,375.5C 215.167,375.5 202.833,375.5 190.5,375.5C 124.322,366.156 76.4885,331.49 47,271.5C 19.5736,200.72 30.5736,136.72 80,79.5C 134.199,27.4946 197.366,12.6613 269.5,35C 337.192,62.1903 375.692,112.024 385,184.5C 388.456,229.115 377.123,269.448 351,305.5C 345.616,312.287 339.782,318.62 333.5,324.5 Z"/></g>
<g><path style="opacity:0.944" fill="#efefef" d="M 31.5,42.5 C 32.4959,42.4142 33.3292,42.7476 34,43.5C 34.5198,47.772 36.0198,51.6053 38.5,55C 41.5131,55.5022 44.5131,56.0022 47.5,56.5C 47.5,57.8333 47.5,59.1667 47.5,60.5C 44.4318,61.0218 41.4318,61.8551 38.5,63C 36.5179,66.8319 34.6846,70.6653 33,74.5C 32.228,74.3552 31.5613,74.0219 31,73.5C 30.7564,65.4226 26.5897,61.0893 18.5,60.5C 17.269,59.3493 17.269,58.1827 18.5,57C 22.0755,56.8097 25.2422,55.643 28,53.5C 29.1059,49.792 30.2726,46.1254 31.5,42.5 Z"/></g>
<g><path style="opacity:0.912" fill="#efefef" d="M 435.5,100.5 C 435.5,101.5 435.5,102.5 435.5,103.5C 429.547,103.629 426.547,106.629 426.5,112.5C 425.998,113.521 425.332,113.688 424.5,113C 423.751,111.266 423.251,109.433 423,107.5C 420.325,105.554 417.492,103.887 414.5,102.5C 416.907,101.103 419.407,99.7699 422,98.5C 422.977,96.26 423.477,93.9267 423.5,91.5C 424.5,91.5 425.5,91.5 426.5,91.5C 425.839,98.1725 428.839,101.173 435.5,100.5 Z"/></g>
<g><path style="opacity:1" fill="#fefefe" d="M 273.5,120.5 C 272.368,134.455 272.202,148.455 273,162.5C 273.5,163 274,163.5 274.5,164C 282.735,165.138 291.069,165.638 299.5,165.5C 307.576,165.485 315.576,165.152 323.5,164.5C 324.164,166.81 324.497,169.31 324.5,172C 323.726,202.826 323.226,233.659 323,264.5C 321.68,269.82 318.347,273.153 313,274.5C 311.97,274.164 311.47,273.497 311.5,272.5C 319.127,244.605 311.127,222.439 287.5,206C 257.5,191.133 232,196.633 211,222.5C 200.613,238.901 198.78,256.235 205.5,274.5C 171.498,274.667 137.498,274.5 103.5,274C 98.5995,272.098 95.4329,268.598 94,263.5C 93.8333,257 93.6667,250.5 93.5,244C 93.8831,205.11 94.7164,166.276 96,127.5C 97.8917,123.942 100.725,121.442 104.5,120C 161.001,119.168 217.335,119.335 273.5,120.5 Z"/></g>
<g><path style="opacity:1" fill="#d8d8d8" d="M 323.5,164.5 C 315.576,165.152 307.576,165.485 299.5,165.5C 291.069,165.638 282.735,165.138 274.5,164C 274,163.5 273.5,163 273,162.5C 272.202,148.455 272.368,134.455 273.5,120.5C 275.402,119.489 277.402,119.322 279.5,120C 294.333,133.5 309.167,147 324,160.5C 324.579,161.928 324.412,163.262 323.5,164.5 Z"/></g>
<g><path style="opacity:0.925" fill="#efefef" d="M 394.5,128.5 C 401.163,127.333 403.997,129.999 403,136.5C 399.333,140.5 395.667,140.5 392,136.5C 391.023,133.183 391.856,130.516 394.5,128.5 Z"/></g>
<g><path style="opacity:0.991" fill="#b4b2b1" d="M -0.5,148.5 C -0.5,147.5 -0.5,146.5 -0.5,145.5C 1.69565,145.435 3.69565,144.768 5.5,143.5C 7.5,135.5 9.5,135.5 11.5,143.5C 14.2173,143.999 16.5506,145.165 18.5,147C 16.1667,148 13.8333,149 11.5,150C 9.646,158.587 7.646,158.587 5.5,150C 3.56429,149.187 1.56429,148.687 -0.5,148.5 Z"/></g>
<g><path style="opacity:1" fill="#d8d8d8" d="M 123.5,151.5 C 163.835,151.333 204.168,151.5 244.5,152C 247.167,154.333 247.167,156.667 244.5,159C 204.167,159.667 163.833,159.667 123.5,159C 120.914,156.506 120.914,154.006 123.5,151.5 Z"/></g>
<g><path style="opacity:1" fill="#d8d8d8" d="M 123.5,182.5 C 141.836,182.333 160.17,182.5 178.5,183C 181.167,185.333 181.167,187.667 178.5,190C 160.167,190.667 141.833,190.667 123.5,190C 120.914,187.506 120.914,185.006 123.5,182.5 Z"/></g>
<g><path style="opacity:1" fill="#d8d8d8" d="M 311.5,272.5 C 308.768,279.116 305.101,285.283 300.5,291C 302.5,293.333 304.5,295.667 306.5,298C 308.5,298.333 310.5,298.667 312.5,299C 320.114,307.101 327.114,315.601 333.5,324.5C 328.956,330.1 323.623,334.766 317.5,338.5C 309.828,330.993 302.662,322.993 296,314.5C 295.242,312.231 295.409,310.064 296.5,308C 294.126,305.961 292.126,303.628 290.5,301C 286.858,302.314 283.191,303.981 279.5,306C 245.87,316.008 221.203,305.508 205.5,274.5C 198.78,256.235 200.613,238.901 211,222.5C 232,196.633 257.5,191.133 287.5,206C 311.127,222.439 319.127,244.605 311.5,272.5 Z"/></g>
<g><path style="opacity:1" fill="#d9d9d9" d="M 124.5,212.5 C 142.17,212.333 159.836,212.5 177.5,213C 180.932,215.367 181.265,218.034 178.5,221C 160.167,221.667 141.833,221.667 123.5,221C 120.83,217.838 121.163,215.005 124.5,212.5 Z"/></g>
<g><path style="opacity:1" fill="#fcfcfc" d="M 293.5,274.5 C 269.833,274.5 246.167,274.5 222.5,274.5C 211.301,252.46 215.634,233.96 235.5,219C 250.458,210.43 265.458,210.43 280.5,219C 299.95,234.098 304.283,252.598 293.5,274.5 Z"/></g>
<g><path style="opacity:1" fill="#f3f3f3" d="M 222.5,274.5 C 246.167,274.5 269.833,274.5 293.5,274.5C 285.604,287.849 273.77,294.849 258,295.5C 242.144,294.999 230.311,287.999 222.5,274.5 Z"/></g>
</svg>
