<?xml version="1.0" encoding="UTF-8"?>
<!DOCTYPE svg PUBLIC "-//W3C//DTD SVG 1.1//EN" "http://www.w3.org/Graphics/SVG/1.1/DTD/svg11.dtd">
<svg xmlns="http://www.w3.org/2000/svg" version="1.1" width="96px" height="80px" style="shape-rendering:geometricPrecision; text-rendering:geometricPrecision; image-rendering:optimizeQuality; fill-rule:evenodd; clip-rule:evenodd" xmlns:xlink="http://www.w3.org/1999/xlink">
<g><path style="opacity:0.293" fill="#202022" d="M 29.5,21.5 C 29.5,20.8333 29.5,20.1667 29.5,19.5C 31.1667,19.5 32.8333,19.5 34.5,19.5C 43.1731,19.6664 51.8397,19.4998 60.5,19C 61.056,18.6174 61.3893,18.1174 61.5,17.5C 62.209,16.596 63.209,16.2627 64.5,16.5C 64.5,15.5 64.5,14.5 64.5,13.5C 65.4345,12.4324 65.7678,11.099 65.5,9.5C 53.5,9.5 41.5,9.5 29.5,9.5C 29.5,9.16667 29.5,8.83333 29.5,8.5C 41.9933,7.33996 54.6599,7.17329 67.5,8C 68.7429,14.478 66.0762,18.8113 59.5,21C 49.5056,21.4998 39.5056,21.6665 29.5,21.5 Z"/></g>
<g><path style="opacity:0.992" fill="#313237" d="M 29.5,9.5 C 41.5,9.5 53.5,9.5 65.5,9.5C 65.7678,11.099 65.4345,12.4324 64.5,13.5C 64.5,12.5 64.5,11.5 64.5,10.5C 51.8076,10.2685 39.141,10.6018 26.5,11.5C 27.5,10.8333 28.5,10.1667 29.5,9.5 Z"/></g>
<g><path style="opacity:1" fill="#35363b" d="M 64.5,13.5 C 64.5,14.5 64.5,15.5 64.5,16.5C 63.209,16.2627 62.209,16.596 61.5,17.5C 52.3562,18.0849 43.3562,18.7515 34.5,19.5C 32.8333,19.5 31.1667,19.5 29.5,19.5C 20.7367,21.759 14.57,27.0923 11,35.5C 8.58139,45.7022 10.7481,54.5355 17.5,62C 19.3031,62.6368 20.6364,63.8035 21.5,65.5C 23.0709,66.3094 24.7376,66.6427 26.5,66.5C 27.2297,68.045 28.563,68.8784 30.5,69C 38.1667,69.6667 45.8333,69.6667 53.5,69C 58.7413,65.7931 58.7413,62.6264 53.5,59.5C 47.2504,57.5411 40.5837,56.8745 33.5,57.5C 28.1226,57.2884 24.6226,54.6218 23,49.5C 21.6534,43.4016 22.8201,37.9016 26.5,33C 27.9007,32.5899 29.234,32.0899 30.5,31.5C 40.1391,30.6401 49.8057,30.3068 59.5,30.5C 59.3713,32.2161 59.038,33.8828 58.5,35.5C 56.8998,36.6444 55.2331,37.8111 53.5,39C 46.5,39.3333 39.5,39.6667 32.5,40C 29.6888,43.2935 30.0221,46.2935 33.5,49C 40.8333,49.3333 48.1667,49.6667 55.5,50C 64.0136,53.6841 67.0136,60.1841 64.5,69.5C 62.631,71.0337 61.2977,73.0337 60.5,75.5C 58.0005,76.3008 56.0005,77.6342 54.5,79.5C 47.5,79.5 40.5,79.5 33.5,79.5C 31.7211,77.6565 29.3878,76.9898 26.5,77.5C 6.76641,70.3621 -1.23359,56.3621 2.5,35.5C 4.09723,33.1522 5.09723,30.4855 5.5,27.5C 9.89725,18.7716 16.8973,13.4382 26.5,11.5C 39.141,10.6018 51.8076,10.2685 64.5,10.5C 64.5,11.5 64.5,12.5 64.5,13.5 Z"/></g>
<g><path style="opacity:0.397" fill="#222225" d="M 78.5,-0.5 C 79.1667,-0.5 79.8333,-0.5 80.5,-0.5C 80.7214,2.27884 80.388,4.94551 79.5,7.5C 77.5,7.5 75.5,7.5 73.5,7.5C 73.2053,9.73535 73.5386,11.7354 74.5,13.5C 76.1667,13.5 77.8333,13.5 79.5,13.5C 80.388,16.0545 80.7214,18.7212 80.5,21.5C 82.7354,21.7947 84.7354,21.4614 86.5,20.5C 86.5,18.1667 86.5,15.8333 86.5,13.5C 89.1667,13.5 91.8333,13.5 94.5,13.5C 94.7845,11.5853 94.4511,9.91866 93.5,8.5C 91.6568,7.71712 89.6568,7.05045 87.5,6.5C 86.5258,4.25731 86.1924,1.92397 86.5,-0.5C 87.5,-0.5 88.5,-0.5 89.5,-0.5C 89.5,1.83333 89.5,4.16667 89.5,6.5C 91.5,6.5 93.5,6.5 95.5,6.5C 95.5,9.5 95.5,12.5 95.5,15.5C 93.5,15.5 91.5,15.5 89.5,15.5C 89.7564,17.7925 89.4231,19.9592 88.5,22C 85.1832,22.4983 81.8499,22.665 78.5,22.5C 78.5,20.1667 78.5,17.8333 78.5,15.5C 76.2075,15.7564 74.0408,15.4231 72,14.5C 71.5026,11.854 71.3359,9.1873 71.5,6.5C 73.8333,6.5 76.1667,6.5 78.5,6.5C 78.5,4.16667 78.5,1.83333 78.5,-0.5 Z"/></g>
<g><path style="opacity:0.875" fill="#28292d" d="M 79.5,7.5 C 78.0813,8.45115 76.4147,8.78448 74.5,8.5C 74.5,10.1667 74.5,11.8333 74.5,13.5C 73.5386,11.7354 73.2053,9.73535 73.5,7.5C 75.5,7.5 77.5,7.5 79.5,7.5 Z"/></g>
<g><path style="opacity:0.992" fill="#2f3035" d="M 85.5,-0.5 C 85.8333,-0.5 86.1667,-0.5 86.5,-0.5C 86.1924,1.92397 86.5258,4.25731 87.5,6.5C 89.6568,7.05045 91.6568,7.71712 93.5,8.5C 90.8806,8.76834 88.3806,8.435 86,7.5C 85.5026,4.85397 85.3359,2.1873 85.5,-0.5 Z"/></g>
<g><path style="opacity:0.929" fill="#2b2c30" d="M 80.5,-0.5 C 80.8333,-0.5 81.1667,-0.5 81.5,-0.5C 82.0356,2.69805 81.369,5.36472 79.5,7.5C 80.388,4.94551 80.7214,2.27884 80.5,-0.5 Z"/></g>
<g><path style="opacity:1" fill="#35363b" d="M 81.5,-0.5 C 82.8333,-0.5 84.1667,-0.5 85.5,-0.5C 85.3359,2.1873 85.5026,4.85397 86,7.5C 88.3806,8.435 90.8806,8.76834 93.5,8.5C 94.4511,9.91866 94.7845,11.5853 94.5,13.5C 91.8333,13.5 89.1667,13.5 86.5,13.5C 86.5,15.8333 86.5,18.1667 86.5,20.5C 84.8333,20.5 83.1667,20.5 81.5,20.5C 82.0102,17.6122 81.3435,15.2789 79.5,13.5C 77.8333,13.5 76.1667,13.5 74.5,13.5C 74.5,11.8333 74.5,10.1667 74.5,8.5C 76.4147,8.78448 78.0813,8.45115 79.5,7.5C 81.369,5.36472 82.0356,2.69805 81.5,-0.5 Z"/></g>
<g><path style="opacity:0.929" fill="#2b2c30" d="M 79.5,13.5 C 81.3435,15.2789 82.0102,17.6122 81.5,20.5C 83.1667,20.5 84.8333,20.5 86.5,20.5C 84.7354,21.4614 82.7354,21.7947 80.5,21.5C 80.7214,18.7212 80.388,16.0545 79.5,13.5 Z"/></g>
<g><path style="opacity:0.976" fill="#2e2f33" d="M 61.5,17.5 C 61.3893,18.1174 61.056,18.6174 60.5,19C 51.8397,19.4998 43.1731,19.6664 34.5,19.5C 43.3562,18.7515 52.3562,18.0849 61.5,17.5 Z"/></g>
<g><path style="opacity:0.992" fill="#2d2e32" d="M 5.5,27.5 C 5.09723,30.4855 4.09723,33.1522 2.5,35.5C 2.3455,32.284 3.3455,29.6174 5.5,27.5 Z"/></g>
<g><path style="opacity:0.502" fill="#222325" d="M 57.5,79.5 C 56.5,79.5 55.5,79.5 54.5,79.5C 56.0005,77.6342 58.0005,76.3008 60.5,75.5C 62.7379,74.1473 64.0713,72.1473 64.5,69.5C 67.0136,60.1841 64.0136,53.6841 55.5,50C 48.1667,49.6667 40.8333,49.3333 33.5,49C 30.0221,46.2935 29.6888,43.2935 32.5,40C 39.5,39.6667 46.5,39.3333 53.5,39C 55.2331,37.8111 56.8998,36.6444 58.5,35.5C 60.2798,34.0101 60.9465,32.0101 60.5,29.5C 51.4938,29.3336 42.4938,29.5002 33.5,30C 32.2625,30.2321 31.2625,30.7321 30.5,31.5C 29.234,32.0899 27.9007,32.5899 26.5,33C 22.8201,37.9016 21.6534,43.4016 23,49.5C 24.6226,54.6218 28.1226,57.2884 33.5,57.5C 40.0343,58.2389 46.7009,58.9056 53.5,59.5C 58.7413,62.6264 58.7413,65.7931 53.5,69C 45.8333,69.6667 38.1667,69.6667 30.5,69C 28.563,68.8784 27.2297,68.045 26.5,66.5C 35.1391,67.5439 43.8057,67.7106 52.5,67C 54.0317,64.67 53.6983,62.67 51.5,61C 45.1667,60.6667 38.8333,60.3333 32.5,60C 20.4346,56.1188 16.6013,48.2855 21,36.5C 24.0366,32.0607 28.2033,29.2273 33.5,28C 43.1667,27.3333 52.8333,27.3333 62.5,28C 64.1527,32.0399 63.1527,35.3733 59.5,38C 57.8333,39 56.1667,40 54.5,41C 47.5079,41.4996 40.5079,41.6663 33.5,41.5C 33.2606,43.4672 33.5939,45.3005 34.5,47C 42.1667,47.3333 49.8333,47.6667 57.5,48C 67.4468,53.5453 70.2801,61.712 66,72.5C 63.5361,75.481 60.7028,77.8144 57.5,79.5 Z"/></g>
<g><path style="opacity:0.992" fill="#303136" d="M 58.5,35.5 C 59.038,33.8828 59.3713,32.2161 59.5,30.5C 49.8057,30.3068 40.1391,30.6401 30.5,31.5C 31.2625,30.7321 32.2625,30.2321 33.5,30C 42.4938,29.5002 51.4938,29.3336 60.5,29.5C 60.9465,32.0101 60.2798,34.0101 58.5,35.5 Z"/></g>
<g><path style="opacity:0.502" fill="#222326" d="M 29.5,19.5 C 29.5,20.1667 29.5,20.8333 29.5,21.5C 13.8262,28.8487 9.32622,40.5153 16,56.5C 18.7379,60.7405 22.2379,64.0738 26.5,66.5C 24.7376,66.6427 23.0709,66.3094 21.5,65.5C 20.6364,63.8035 19.3031,62.6368 17.5,62C 10.7481,54.5355 8.58139,45.7022 11,35.5C 14.57,27.0923 20.7367,21.759 29.5,19.5 Z"/></g>
<g><path style="opacity:0.965" fill="#2d2e33" d="M 33.5,57.5 C 40.5837,56.8745 47.2504,57.5411 53.5,59.5C 46.7009,58.9056 40.0343,58.2389 33.5,57.5 Z"/></g>
<g><path style="opacity:0.365" fill="#222325" d="M 29.5,8.5 C 29.5,8.83333 29.5,9.16667 29.5,9.5C 28.5,10.1667 27.5,10.8333 26.5,11.5C 16.8973,13.4382 9.89725,18.7716 5.5,27.5C 3.3455,29.6174 2.3455,32.284 2.5,35.5C -1.23359,56.3621 6.76641,70.3621 26.5,77.5C 27.5,78.1667 28.5,78.8333 29.5,79.5C 27.8333,79.5 26.1667,79.5 24.5,79.5C 12.1013,74.7675 3.76794,66.1008 -0.5,53.5C -0.5,47.1667 -0.5,40.8333 -0.5,34.5C 4.1695,19.8391 14.1695,11.1724 29.5,8.5 Z"/></g>
<g><path style="opacity:0.894" fill="#2a2b2f" d="M 64.5,69.5 C 64.0713,72.1473 62.7379,74.1473 60.5,75.5C 61.2977,73.0337 62.631,71.0337 64.5,69.5 Z"/></g>
<g><path style="opacity:0.992" fill="#2e2f33" d="M 26.5,77.5 C 29.3878,76.9898 31.7211,77.6565 33.5,79.5C 32.1667,79.5 30.8333,79.5 29.5,79.5C 28.5,78.8333 27.5,78.1667 26.5,77.5 Z"/></g>
</svg>
