<?xml version="1.0" encoding="UTF-8"?>
<!DOCTYPE svg PUBLIC "-//W3C//DTD SVG 1.1//EN" "http://www.w3.org/Graphics/SVG/1.1/DTD/svg11.dtd">
<svg xmlns="http://www.w3.org/2000/svg" version="1.1" width="96px" height="80px" style="shape-rendering:geometricPrecision; text-rendering:geometricPrecision; image-rendering:optimizeQuality; fill-rule:evenodd; clip-rule:evenodd" xmlns:xlink="http://www.w3.org/1999/xlink">
<g><path style="opacity:1" fill="#d4d7dd" d="M 81.5,-0.5 C 83.1667,-0.5 84.8333,-0.5 86.5,-0.5C 86.3359,2.1873 86.5026,4.85397 87,7.5C 89.0408,8.42308 91.2075,8.75642 93.5,8.5C 94.4511,9.91866 94.7845,11.5853 94.5,13.5C 91.8333,13.5 89.1667,13.5 86.5,13.5C 86.5,15.8333 86.5,18.1667 86.5,20.5C 84.8333,20.5 83.1667,20.5 81.5,20.5C 81.5,18.1667 81.5,15.8333 81.5,13.5C 79.1667,13.5 76.8333,13.5 74.5,13.5C 74.5,11.8333 74.5,10.1667 74.5,8.5C 76.7925,8.75642 78.9592,8.42308 81,7.5C 81.4974,4.85397 81.6641,2.1873 81.5,-0.5 Z"/></g>
<g><path style="opacity:0.941" fill="#abadb3" d="M 80.5,-0.5 C 80.8333,-0.5 81.1667,-0.5 81.5,-0.5C 81.6641,2.1873 81.4974,4.85397 81,7.5C 78.9592,8.42308 76.7925,8.75642 74.5,8.5C 74.5,10.1667 74.5,11.8333 74.5,13.5C 73.5386,11.7354 73.2053,9.73535 73.5,7.5C 79.9049,8.59381 82.2382,5.92714 80.5,-0.5 Z"/></g>
<g><path style="opacity:0.944" fill="#a9acb1" d="M 86.5,-0.5 C 86.8333,-0.5 87.1667,-0.5 87.5,-0.5C 87.3367,1.85684 87.5034,4.19018 88,6.5C 89.9483,7.10936 91.7816,7.77602 93.5,8.5C 91.2075,8.75642 89.0408,8.42308 87,7.5C 86.5026,4.85397 86.3359,2.1873 86.5,-0.5 Z"/></g>
<g><path style="opacity:0.408" fill="#7a7c80" d="M 29.5,21.5 C 30.1667,20.8333 30.8333,20.1667 31.5,19.5C 40.8393,19.6665 50.1726,19.4998 59.5,19C 60.4158,18.7216 61.0825,18.2216 61.5,17.5C 63.2294,16.7638 64.2294,15.4305 64.5,13.5C 65.4345,12.4324 65.7678,11.099 65.5,9.5C 52.8333,9.5 40.1667,9.5 27.5,9.5C 27.5,9.16667 27.5,8.83333 27.5,8.5C 41.1039,7.18646 54.7705,7.18646 68.5,8.5C 68.7093,9.08605 69.0426,9.58605 69.5,10C 67.9804,14.8552 64.9804,18.5219 60.5,21C 50.172,21.4998 39.8387,21.6665 29.5,21.5 Z"/></g>
<g><path style="opacity:0.427" fill="#7f8084" d="M 87.5,-0.5 C 88.1667,-0.5 88.8333,-0.5 89.5,-0.5C 89.5,1.83333 89.5,4.16667 89.5,6.5C 91.5,6.5 93.5,6.5 95.5,6.5C 95.5,9.5 95.5,12.5 95.5,15.5C 93.5,15.5 91.5,15.5 89.5,15.5C 89.5,17.8333 89.5,20.1667 89.5,22.5C 88.5,22.5 87.5,22.5 86.5,22.5C 87.388,19.9455 87.7214,17.2788 87.5,14.5C 90.0593,14.8016 92.3926,14.4682 94.5,13.5C 94.7845,11.5853 94.4511,9.91866 93.5,8.5C 91.7816,7.77602 89.9483,7.10936 88,6.5C 87.5034,4.19018 87.3367,1.85684 87.5,-0.5 Z"/></g>
<g><path style="opacity:0.992" fill="#c4c7cd" d="M 27.5,9.5 C 40.1667,9.5 52.8333,9.5 65.5,9.5C 65.7678,11.099 65.4345,12.4324 64.5,13.5C 64.5,12.5 64.5,11.5 64.5,10.5C 51.7963,10.2249 39.1296,10.5582 26.5,11.5C 26.8333,10.8333 27.1667,10.1667 27.5,9.5 Z"/></g>
<g><path style="opacity:1" fill="#d4d6dc" d="M 64.5,13.5 C 64.2294,15.4305 63.2294,16.7638 61.5,17.5C 51.8276,17.3335 42.1609,17.5002 32.5,18C 31.5842,18.2784 30.9175,18.7784 30.5,19.5C 10.8862,26.0936 5.38623,39.0936 14,58.5C 17.9682,63.1262 22.8016,66.6262 28.5,69C 37.0104,69.8232 45.3437,69.6566 53.5,68.5C 53.8333,68.5 54.1667,68.5 54.5,68.5C 58.5,65.8333 58.5,63.1667 54.5,60.5C 54.5,59.8333 54.1667,59.5 53.5,59.5C 47.588,57.5437 41.2547,56.8771 34.5,57.5C 32.7839,57.3713 31.1172,57.038 29.5,56.5C 25.4243,54.9361 23.0909,51.9361 22.5,47.5C 22.5,44.8333 22.5,42.1667 22.5,39.5C 23.4613,35.544 25.7947,32.8773 29.5,31.5C 39.4762,30.6677 49.4762,30.3344 59.5,30.5C 59.3713,32.2161 59.038,33.8828 58.5,35.5C 57.4264,36.8846 56.0931,38.0513 54.5,39C 47.1667,39.3333 39.8333,39.6667 32.5,40C 29.7586,43.2418 30.0919,46.2418 33.5,49C 40.8258,49.4997 48.1591,49.6663 55.5,49.5C 56.4856,51.4077 58.1523,52.4077 60.5,52.5C 65.1232,57.1764 66.6232,62.8431 65,69.5C 61.9793,73.9032 58.146,77.2365 53.5,79.5C 45.5,79.5 37.5,79.5 29.5,79.5C 29.5299,78.5028 29.0299,77.8361 28,77.5C 25.536,76.8392 23.036,76.3392 20.5,76C 18.8197,73.6021 16.4863,72.4355 13.5,72.5C 11.1889,69.2331 8.85556,65.8998 6.5,62.5C 6.27534,59.4542 4.942,57.1209 2.5,55.5C 2.79472,53.2646 2.46138,51.2646 1.5,49.5C 1.43718,44.7971 1.77052,40.1304 2.5,35.5C 5.34154,26.1406 10.8415,18.8072 19,13.5C 21.4333,12.5212 23.9333,11.8545 26.5,11.5C 39.1296,10.5582 51.7963,10.2249 64.5,10.5C 64.5,11.5 64.5,12.5 64.5,13.5 Z"/></g>
<g><path style="opacity:0.263" fill="#828386" d="M 77.5,-0.5 C 78.5,-0.5 79.5,-0.5 80.5,-0.5C 82.2382,5.92714 79.9049,8.59381 73.5,7.5C 73.2053,9.73535 73.5386,11.7354 74.5,13.5C 75.9187,14.4511 77.5853,14.7845 79.5,14.5C 79.2786,17.2788 79.612,19.9455 80.5,22.5C 79.5041,22.5858 78.6708,22.2524 78,21.5C 77.5045,19.5273 77.3379,17.5273 77.5,15.5C 75.5,15.5 73.5,15.5 71.5,15.5C 71.5,12.5 71.5,9.5 71.5,6.5C 73.5,6.5 75.5,6.5 77.5,6.5C 77.5,4.16667 77.5,1.83333 77.5,-0.5 Z"/></g>
<g><path style="opacity:0.873" fill="#9c9ea2" d="M 74.5,13.5 C 76.8333,13.5 79.1667,13.5 81.5,13.5C 81.5,15.8333 81.5,18.1667 81.5,20.5C 83.1667,20.5 84.8333,20.5 86.5,20.5C 86.5,18.1667 86.5,15.8333 86.5,13.5C 89.1667,13.5 91.8333,13.5 94.5,13.5C 92.3926,14.4682 90.0593,14.8016 87.5,14.5C 87.7214,17.2788 87.388,19.9455 86.5,22.5C 84.5,22.5 82.5,22.5 80.5,22.5C 79.612,19.9455 79.2786,17.2788 79.5,14.5C 77.5853,14.7845 75.9187,14.4511 74.5,13.5 Z"/></g>
<g><path style="opacity:0.996" fill="#c7cacf" d="M 61.5,17.5 C 61.0825,18.2216 60.4158,18.7216 59.5,19C 50.1726,19.4998 40.8393,19.6665 31.5,19.5C 31.1667,19.5 30.8333,19.5 30.5,19.5C 30.9175,18.7784 31.5842,18.2784 32.5,18C 42.1609,17.5002 51.8276,17.3335 61.5,17.5 Z"/></g>
<g><path style="opacity:0.183" fill="#828387" d="M 27.5,8.5 C 27.5,8.83333 27.5,9.16667 27.5,9.5C 27.1667,10.1667 26.8333,10.8333 26.5,11.5C 23.9333,11.8545 21.4333,12.5212 19,13.5C 10.8415,18.8072 5.34154,26.1406 2.5,35.5C 1.02695,38.0169 0.360286,40.8502 0.5,44C 0.505577,46.0326 0.83891,47.866 1.5,49.5C 2.46138,51.2646 2.79472,53.2646 2.5,55.5C 2.72466,58.5458 4.058,60.8791 6.5,62.5C 8.85556,65.8998 11.1889,69.2331 13.5,72.5C 9.61561,70.7902 6.44894,68.1235 4,64.5C 1.89728,60.9772 0.397283,57.3106 -0.5,53.5C -0.5,46.8333 -0.5,40.1667 -0.5,33.5C 4.41504,20.2533 13.7484,11.9199 27.5,8.5 Z"/></g>
<g><path style="opacity:0.824" fill="#9c9ea3" d="M 2.5,35.5 C 1.77052,40.1304 1.43718,44.7971 1.5,49.5C 0.83891,47.866 0.505577,46.0326 0.5,44C 0.360286,40.8502 1.02695,38.0169 2.5,35.5 Z"/></g>
<g><path style="opacity:0.078" fill="#86878b" d="M 30.5,19.5 C 30.8333,19.5 31.1667,19.5 31.5,19.5C 30.8333,20.1667 30.1667,20.8333 29.5,21.5C 17.1912,26.6765 11.6912,36.0099 13,49.5C 15.6688,58.6678 21.5022,64.6678 30.5,67.5C 37.9818,68.492 45.6484,68.8254 53.5,68.5C 45.3437,69.6566 37.0104,69.8232 28.5,69C 22.8016,66.6262 17.9682,63.1262 14,58.5C 5.38623,39.0936 10.8862,26.0936 30.5,19.5 Z"/></g>
<g><path style="opacity:0.749" fill="#a0a2a7" d="M 2.5,55.5 C 4.942,57.1209 6.27534,59.4542 6.5,62.5C 4.058,60.8791 2.72466,58.5458 2.5,55.5 Z"/></g>
<g><path style="opacity:0.427" fill="#808184" d="M 58.5,79.5 C 56.8333,79.5 55.1667,79.5 53.5,79.5C 58.146,77.2365 61.9793,73.9032 65,69.5C 66.6232,62.8431 65.1232,57.1764 60.5,52.5C 59.3406,50.7497 57.674,49.7497 55.5,49.5C 48.1591,49.6663 40.8258,49.4997 33.5,49C 30.0919,46.2418 29.7586,43.2418 32.5,40C 39.8333,39.6667 47.1667,39.3333 54.5,39C 56.0931,38.0513 57.4264,36.8846 58.5,35.5C 60.2798,34.0101 60.9465,32.0101 60.5,29.5C 51.1607,29.3335 41.8274,29.5002 32.5,30C 31.2625,30.2321 30.2625,30.7321 29.5,31.5C 25.7947,32.8773 23.4613,35.544 22.5,39.5C 19.9405,42.2435 19.9405,44.9102 22.5,47.5C 23.0909,51.9361 25.4243,54.9361 29.5,56.5C 30.347,57.9663 31.6803,58.7996 33.5,59C 39.4908,59.4995 45.4908,59.6662 51.5,59.5C 52.1667,59.5 52.8333,59.5 53.5,59.5C 54.1667,59.5 54.5,59.8333 54.5,60.5C 55.8333,63.1667 55.8333,65.8333 54.5,68.5C 54.1667,68.5 53.8333,68.5 53.5,68.5C 45.6484,68.8254 37.9818,68.492 30.5,67.5C 37.5079,67.6663 44.5079,67.4996 51.5,67C 54.033,65.084 54.033,63.084 51.5,61C 44.8333,60.6667 38.1667,60.3333 31.5,60C 19.4047,54.7066 16.238,46.2066 22,34.5C 25.2975,31.4333 29.1308,29.2666 33.5,28C 43.4944,27.5002 53.4944,27.3335 63.5,27.5C 64.4288,33.0715 62.4288,37.2382 57.5,40C 49.9108,41.2305 42.2441,41.8972 34.5,42C 33.0091,44.0217 33.3424,45.6883 35.5,47C 42.8333,47.3333 50.1667,47.6667 57.5,48C 66.7876,52.7569 69.9543,60.2569 67,70.5C 65.3122,74.6852 62.4788,77.6852 58.5,79.5 Z"/></g>
<g><path style="opacity:0.851" fill="#9b9da2" d="M 29.5,56.5 C 31.1172,57.038 32.7839,57.3713 34.5,57.5C 40.1667,58.1667 45.8333,58.8333 51.5,59.5C 45.4908,59.6662 39.4908,59.4995 33.5,59C 31.6803,58.7996 30.347,57.9663 29.5,56.5 Z"/></g>
<g><path style="opacity:0.969" fill="#b7babf" d="M 34.5,57.5 C 41.2547,56.8771 47.588,57.5437 53.5,59.5C 52.8333,59.5 52.1667,59.5 51.5,59.5C 45.8333,58.8333 40.1667,58.1667 34.5,57.5 Z"/></g>
<g><path style="opacity:0.796" fill="#a0a3a7" d="M 55.5,49.5 C 57.674,49.7497 59.3406,50.7497 60.5,52.5C 58.1523,52.4077 56.4856,51.4077 55.5,49.5 Z"/></g>
<g><path style="opacity:0.937" fill="#a4a6aa" d="M 22.5,39.5 C 22.5,42.1667 22.5,44.8333 22.5,47.5C 19.9405,44.9102 19.9405,42.2435 22.5,39.5 Z"/></g>
<g><path style="opacity:0.988" fill="#bdc0c5" d="M 58.5,35.5 C 59.038,33.8828 59.3713,32.2161 59.5,30.5C 49.4762,30.3344 39.4762,30.6677 29.5,31.5C 30.2625,30.7321 31.2625,30.2321 32.5,30C 41.8274,29.5002 51.1607,29.3335 60.5,29.5C 60.9465,32.0101 60.2798,34.0101 58.5,35.5 Z"/></g>
<g><path style="opacity:0.776" fill="#a2a4a9" d="M 54.5,60.5 C 58.5,63.1667 58.5,65.8333 54.5,68.5C 55.8333,65.8333 55.8333,63.1667 54.5,60.5 Z"/></g>
<g><path style="opacity:0.294" fill="#848589" d="M 13.5,72.5 C 16.4863,72.4355 18.8197,73.6021 20.5,76C 23.036,76.3392 25.536,76.8392 28,77.5C 29.0299,77.8361 29.5299,78.5028 29.5,79.5C 27.8333,79.5 26.1667,79.5 24.5,79.5C 21.0511,78.5063 17.7177,77.0063 14.5,75C 13.7476,74.3292 13.4142,73.4959 13.5,72.5 Z"/></g>
</svg>
