<svg width="29" height="29" viewBox="0 0 29 29" fill="none" xmlns="http://www.w3.org/2000/svg">
<circle r="14.0044" transform="matrix(0.707328 -0.706885 0.707328 0.706885 14.1204 14.1116)" fill="#00C0AB"/>
<path fill-rule="evenodd" clip-rule="evenodd" d="M13.2226 11.5154C13.2072 11.5491 13.1857 11.5883 13.1574 11.6337V11.6337C13.0924 11.7549 13.0315 11.8786 12.9766 12.0055V12.0055C12.864 12.3027 12.7755 12.6733 12.7079 13.0314V13.0314C12.6397 13.3929 12.5927 13.7417 12.5637 13.9892V13.9892C12.5637 13.9926 12.5635 13.9959 12.5635 13.9993V13.9993C12.5631 13.9994 12.563 13.9994 12.5625 13.9995V13.9995C12.5625 13.9997 12.5625 13.9999 12.5625 14.0001V14.0001C12.5613 14.0105 12.56 14.0211 12.5589 14.0311V14.0311C12.542 15.2573 11.5259 16.2463 10.2741 16.2463V16.2463C9.01184 16.2463 7.98852 15.2407 7.98852 14.0001V14.0001C7.98852 12.7595 9.01184 11.7538 10.2741 11.7538V11.7538C10.9248 11.7538 11.5116 12.0215 11.9278 12.4504V12.4504C12.1641 11.59 12.6013 10.7689 13.246 10.0584V10.0584C13.2884 10.0118 13.3323 9.96748 13.3758 9.92244V9.92244C12.5111 9.2861 11.4374 8.90918 10.2741 8.90918V8.90918C7.41329 8.90918 5.09412 11.1885 5.09412 14.0001V14.0001C5.09412 16.8118 7.41329 19.0887 10.2741 19.091V19.091C12.7856 19.093 14.8723 17.3521 15.3523 15.0006V15.0006C15.3859 14.8355 15.4124 14.6679 15.4291 14.4974V14.4974L15.4296 14.4976C15.4296 14.4976 15.4299 14.492 15.4303 14.482V14.482C15.438 14.402 15.4441 14.3215 15.448 14.2405V14.2405C15.4543 14.1699 15.4629 14.0878 15.4738 14.0001V14.0001C15.5077 13.7277 15.5658 13.3962 15.6639 13.1463V13.1463C15.7008 13.0666 15.7417 12.9886 15.7869 12.9132V12.9132C15.7967 12.9002 15.8045 12.8875 15.8111 12.8749V12.8749C16.2215 12.2192 16.9363 11.7538 17.7435 11.7538V11.7538C19.0057 11.7538 20.0291 12.7595 20.0291 14.0001V14.0001C20.0291 15.2407 19.0057 16.2463 17.7435 16.2463V16.2463C17.093 16.2463 16.5064 15.9788 16.0902 15.5501V15.5501C15.8253 16.5121 15.3202 17.3762 14.6419 18.0778V18.0778C15.5065 18.7141 16.5802 19.091 17.7435 19.091V19.091C20.6043 19.091 22.9235 16.8118 22.9235 14.0001V14.0001C22.9235 11.1885 20.6043 8.90918 17.7435 8.90918V8.90918C15.801 8.90918 14.1092 9.96063 13.2226 11.5154" fill="white"/>
<mask id="mask0_726_1234" style="mask-type:alpha" maskUnits="userSpaceOnUse" x="5" y="8" width="18" height="12">
<path fill-rule="evenodd" clip-rule="evenodd" d="M13.2226 11.5154C13.2072 11.5491 13.1857 11.5883 13.1574 11.6337V11.6337C13.0924 11.7549 13.0315 11.8786 12.9766 12.0055V12.0055C12.864 12.3027 12.7755 12.6733 12.7079 13.0314V13.0314C12.6397 13.3929 12.5927 13.7417 12.5637 13.9892V13.9892C12.5637 13.9926 12.5635 13.9959 12.5635 13.9993V13.9993C12.5631 13.9994 12.563 13.9994 12.5625 13.9995V13.9995C12.5625 13.9997 12.5625 13.9999 12.5625 14.0001V14.0001C12.5613 14.0105 12.56 14.0211 12.5589 14.0311V14.0311C12.542 15.2573 11.5259 16.2463 10.2741 16.2463V16.2463C9.01184 16.2463 7.98852 15.2407 7.98852 14.0001V14.0001C7.98852 12.7595 9.01184 11.7538 10.2741 11.7538V11.7538C10.9248 11.7538 11.5116 12.0215 11.9278 12.4504V12.4504C12.1641 11.59 12.6013 10.7689 13.246 10.0584V10.0584C13.2884 10.0118 13.3323 9.96748 13.3758 9.92244V9.92244C12.5111 9.2861 11.4374 8.90918 10.2741 8.90918V8.90918C7.41329 8.90918 5.09412 11.1885 5.09412 14.0001V14.0001C5.09412 16.8118 7.41329 19.0887 10.2741 19.091V19.091C12.7856 19.093 14.8723 17.3521 15.3523 15.0006V15.0006C15.3859 14.8355 15.4124 14.6679 15.4291 14.4974V14.4974L15.4296 14.4976C15.4296 14.4976 15.4299 14.492 15.4303 14.482V14.482C15.438 14.402 15.4441 14.3215 15.448 14.2405V14.2405C15.4543 14.1699 15.4629 14.0878 15.4738 14.0001V14.0001C15.5077 13.7277 15.5658 13.3962 15.6639 13.1463V13.1463C15.7008 13.0666 15.7417 12.9886 15.7869 12.9132V12.9132C15.7967 12.9002 15.8045 12.8875 15.8111 12.8749V12.8749C16.2215 12.2192 16.9363 11.7538 17.7435 11.7538V11.7538C19.0057 11.7538 20.0291 12.7595 20.0291 14.0001V14.0001C20.0291 15.2407 19.0057 16.2463 17.7435 16.2463V16.2463C17.093 16.2463 16.5064 15.9788 16.0902 15.5501V15.5501C15.8253 16.5121 15.3202 17.3762 14.6419 18.0778V18.0778C15.5065 18.7141 16.5802 19.091 17.7435 19.091V19.091C20.6043 19.091 22.9235 16.8118 22.9235 14.0001V14.0001C22.9235 11.1885 20.6043 8.90918 17.7435 8.90918V8.90918C15.801 8.90918 14.1092 9.96063 13.2226 11.5154" fill="white"/>
</mask>
<g mask="url(#mask0_726_1234)">
</g>
</svg>
