<?xml version="1.0" encoding="UTF-8"?>
<svg width="56px" height="56px" viewBox="0 0 56 56" version="1.1" xmlns="http://www.w3.org/2000/svg" xmlns:xlink="http://www.w3.org/1999/xlink">
    <title>low-risk</title>
    <g id="step1-active" stroke="none" stroke-width="1" fill="none" fill-rule="evenodd">
        <g id="low-risk" transform="translate(-0.000000, 0.000000)" fill="#17A278" fill-rule="nonzero">
            <path d="M28,56 C12.517647,56 0,43.4823529 0,28 L56,28 C56,43.4823529 43.4823529,56 28,56 Z" id="路径" opacity="0.499604725"></path>
            <path d="M28,5.60000001 C15.6470588,5.60000001 5.59999995,15.6470588 5.59999995,28 C5.59999995,40.3529411 15.6470588,50.4 28,50.4 C40.3529412,50.4 50.4,40.3529412 50.4,28 C50.4,15.6470588 40.3529412,5.60000001 28,5.60000001 Z M28,56 C12.6,56 0,43.4823529 0,28 C0,12.517647 12.6,0 28,0 C43.3999999,0 56,12.6 56,28 C56,43.3999999 43.3999999,56 28,56 Z" id="形状"></path>
            <path d="M24.0470588,33.1882353 C21.8235294,30.9647059 16.1411765,17.3764706 16.1411765,17.3764706 C16.1411765,17.3764706 29.8117647,23.1411765 31.9529411,25.2823529 C34.0941176,27.5058823 34.0941176,30.9647059 31.9529411,33.1882353 C29.7294117,35.3294118 26.1882352,35.3294118 24.0470588,33.1882353 Z" id="路径"></path>
        </g>
    </g>
</svg>