<?xml version="1.0" encoding="UTF-8"?>
<!DOCTYPE svg PUBLIC "-//W3C//DTD SVG 1.1//EN" "http://www.w3.org/Graphics/SVG/1.1/DTD/svg11.dtd">
<svg xmlns="http://www.w3.org/2000/svg" version="1.1" width="400px" height="80px" style="shape-rendering:geometricPrecision; text-rendering:geometricPrecision; image-rendering:optimizeQuality; fill-rule:evenodd; clip-rule:evenodd" xmlns:xlink="http://www.w3.org/1999/xlink">
<g><path style="opacity:0.408" fill="#97999e" d="M 164.5,8.5 C 164.5,8.83333 164.5,9.16667 164.5,9.5C 164.5,29.1667 164.5,48.8333 164.5,68.5C 178.833,68.5 193.167,68.5 207.5,68.5C 207.5,68.8333 207.5,69.1667 207.5,69.5C 192.5,69.5 177.5,69.5 162.5,69.5C 161.845,48.8059 162.512,28.4725 164.5,8.5 Z"/></g>
<g><path style="opacity:0.992" fill="#bfc2c8" d="M 274.5,17.5 C 272.366,15.5298 270.366,13.3631 268.5,11C 263.177,10.5006 257.844,10.334 252.5,10.5C 252.5,29.5 252.5,48.5 252.5,67.5C 252.5,67.8333 252.5,68.1667 252.5,68.5C 251.503,49.0071 251.17,29.3404 251.5,9.5C 257.509,9.33385 263.509,9.50051 269.5,10C 271.827,12.1417 273.493,14.6417 274.5,17.5 Z"/></g>
<g><path style="opacity:0.161" fill="#878991" d="M 288.5,8.5 C 288.5,8.83333 288.5,9.16667 288.5,9.5C 288.831,17.8599 288.498,26.1932 287.5,34.5C 286.893,34.3764 286.56,34.0431 286.5,33.5C 287.11,32.609 287.443,31.609 287.5,30.5C 287.175,22.9809 287.508,15.6476 288.5,8.5 Z"/></g>
<g><path style="opacity:0.4" fill="#93969a" d="M 21.5,8.5 C 21.5,8.83333 21.5,9.16667 21.5,9.5C 21.5,28.5 21.5,47.5 21.5,66.5C 21.5,67.1667 21.5,67.8333 21.5,68.5C 21.5,68.8333 21.5,69.1667 21.5,69.5C 20.168,59.6893 19.5013,49.5227 19.5,39C 19.5013,28.4773 20.168,18.3107 21.5,8.5 Z"/></g>
<g><path style="opacity:0.741" fill="#9d9fa4" d="M 21.5,9.5 C 21.5,9.16667 21.5,8.83333 21.5,8.5C 42.1667,8.5 62.8333,8.5 83.5,8.5C 83.5,28.8333 83.5,49.1667 83.5,69.5C 62.8333,69.5 42.1667,69.5 21.5,69.5C 21.5,69.1667 21.5,68.8333 21.5,68.5C 41.5284,69.1545 61.1951,68.4878 80.5,66.5C 80.5,47.5 80.5,28.5 80.5,9.5C 60.8333,9.5 41.1667,9.5 21.5,9.5 Z"/></g>
<g><path style="opacity:0.161" fill="#878991" d="M 92.5,8.5 C 92.5,8.83333 92.5,9.16667 92.5,9.5C 91.7784,9.91753 91.2784,10.5842 91,11.5C 90.3333,29.8333 90.3333,48.1667 91,66.5C 91.2784,67.4158 91.7784,68.0825 92.5,68.5C 92.5,68.8333 92.5,69.1667 92.5,69.5C 91.5,69.5 90.5,69.5 89.5,69.5C 89.5,49.1667 89.5,28.8333 89.5,8.5C 90.5,8.5 91.5,8.5 92.5,8.5 Z"/></g>
<g><path style="opacity:1" fill="#d6d9df" d="M 110.5,28.5 C 110.842,29.3382 111.508,29.6716 112.5,29.5C 118.5,29.5 124.5,29.5 130.5,29.5C 130.5,35.5 130.5,41.5 130.5,47.5C 124.69,48.4896 118.69,48.8229 112.5,48.5C 111.508,48.3284 110.842,48.6618 110.5,49.5C 109.511,54.9753 109.178,60.642 109.5,66.5C 104.167,66.5 98.8333,66.5 93.5,66.5C 93.5,48.1667 93.5,29.8333 93.5,11.5C 98.8333,11.5 104.167,11.5 109.5,11.5C 109.178,17.358 109.511,23.0247 110.5,28.5 Z"/></g>
<g><path style="opacity:0.996" fill="#cdd0d6" d="M 92.5,9.5 C 98.9262,8.88 104.926,9.54666 110.5,11.5C 110.5,17.1667 110.5,22.8333 110.5,28.5C 109.511,23.0247 109.178,17.358 109.5,11.5C 104.167,11.5 98.8333,11.5 93.5,11.5C 93.5,29.8333 93.5,48.1667 93.5,66.5C 98.8333,66.5 104.167,66.5 109.5,66.5C 109.178,60.642 109.511,54.9753 110.5,49.5C 110.5,55.1667 110.5,60.8333 110.5,66.5C 104.926,68.4533 98.9262,69.12 92.5,68.5C 92.5,48.8333 92.5,29.1667 92.5,9.5 Z"/></g>
<g><path style="opacity:0.906" fill="#b2b5bb" d="M 110.5,11.5 C 111.167,17.1667 111.833,22.8333 112.5,28.5C 112.5,28.8333 112.5,29.1667 112.5,29.5C 111.508,29.6716 110.842,29.3382 110.5,28.5C 110.5,22.8333 110.5,17.1667 110.5,11.5 Z"/></g>
<g><path style="opacity:0.812" fill="#a4a5ac" d="M 92.5,9.5 C 92.5,9.16667 92.5,8.83333 92.5,8.5C 99.1667,8.5 105.833,8.5 112.5,8.5C 112.5,15.1667 112.5,21.8333 112.5,28.5C 111.833,22.8333 111.167,17.1667 110.5,11.5C 104.926,9.54666 98.9262,8.88 92.5,9.5 Z"/></g>
<g><path style="opacity:0.467" fill="#999ba1" d="M 130.5,8.5 C 138.167,8.5 145.833,8.5 153.5,8.5C 153.825,16.0191 153.492,23.3524 152.5,30.5C 146.021,29.5093 139.354,29.176 132.5,29.5C 131.833,29.5 131.167,29.5 130.5,29.5C 124.5,29.5 118.5,29.5 112.5,29.5C 112.5,29.1667 112.5,28.8333 112.5,28.5C 118.5,28.5 124.5,28.5 130.5,28.5C 130.5,21.8333 130.5,15.1667 130.5,8.5 Z"/></g>
<g><path style="opacity:0.788" fill="#aaacb2" d="M 150.5,9.5 C 151.818,12.2575 152.485,15.4242 152.5,19C 152.485,22.5758 151.818,25.7425 150.5,28.5C 150.5,22.1667 150.5,15.8333 150.5,9.5 Z"/></g>
<g><path style="opacity:1" fill="#d4d7dd" d="M 150.5,9.5 C 150.5,15.8333 150.5,22.1667 150.5,28.5C 144.5,28.5 138.5,28.5 132.5,28.5C 132.5,22.1667 132.5,15.8333 132.5,9.5C 138.5,9.5 144.5,9.5 150.5,9.5 Z"/></g>
<g><path style="opacity:0.996" fill="#d1d4da" d="M 165.5,9.5 C 171.167,9.5 176.833,9.5 182.5,9.5C 182.5,22.1667 182.5,34.8333 182.5,47.5C 181.505,35.6783 181.172,23.6783 181.5,11.5C 176.5,11.5 171.5,11.5 166.5,11.5C 166.5,29.8333 166.5,48.1667 166.5,66.5C 166.167,66.5 165.833,66.5 165.5,66.5C 165.5,47.5 165.5,28.5 165.5,9.5 Z"/></g>
<g><path style="opacity:1" fill="#d6d9df" d="M 182.5,47.5 C 190.097,49.4668 198.097,50.1335 206.5,49.5C 206.5,55.1667 206.5,60.8333 206.5,66.5C 193.167,66.5 179.833,66.5 166.5,66.5C 166.5,48.1667 166.5,29.8333 166.5,11.5C 171.5,11.5 176.5,11.5 181.5,11.5C 181.172,23.6783 181.505,35.6783 182.5,47.5 Z"/></g>
<g><path style="opacity:0.976" fill="#b9bcc2" d="M 182.5,9.5 C 182.84,22.6988 183.84,35.6988 185.5,48.5C 193.019,48.175 200.352,48.5084 207.5,49.5C 207.167,49.5 206.833,49.5 206.5,49.5C 198.097,50.1335 190.097,49.4668 182.5,47.5C 182.5,34.8333 182.5,22.1667 182.5,9.5 Z"/></g>
<g><path style="opacity:0.553" fill="#93949d" d="M 164.5,9.5 C 164.5,9.16667 164.5,8.83333 164.5,8.5C 171.833,8.5 179.167,8.5 186.5,8.5C 186.5,21.1667 186.5,33.8333 186.5,46.5C 185.662,46.8417 185.328,47.5084 185.5,48.5C 183.84,35.6988 182.84,22.6988 182.5,9.5C 176.833,9.5 171.167,9.5 165.5,9.5C 165.167,9.5 164.833,9.5 164.5,9.5 Z"/></g>
<g><path style="opacity:0.553" fill="#97989c" d="M 216.5,8.5 C 224.939,7.88397 233.106,8.55063 241,10.5C 241.821,29.8769 241.654,49.2102 240.5,68.5C 232.608,69.8138 224.775,69.8138 217,68.5C 216.5,48.5028 216.333,28.5028 216.5,8.5 Z"/></g>
<g><path style="opacity:0.878" fill="#b3b5ba" d="M 237.5,9.5 C 238.832,18.8095 239.499,28.4761 239.5,38.5C 239.333,48.1667 239.167,57.8333 239,67.5C 238.617,68.056 238.117,68.3893 237.5,68.5C 237.5,67.8333 237.5,67.1667 237.5,66.5C 237.5,47.5 237.5,28.5 237.5,9.5 Z"/></g>
<g><path style="opacity:1" fill="#d6d9df" d="M 220.5,9.5 C 226.167,9.5 231.833,9.5 237.5,9.5C 237.5,28.5 237.5,47.5 237.5,66.5C 231.833,66.5 226.167,66.5 220.5,66.5C 220.5,47.5 220.5,28.5 220.5,9.5 Z"/></g>
<g><path style="opacity:0.969" fill="#bfc2c8" d="M 220.5,9.5 C 220.5,28.5 220.5,47.5 220.5,66.5C 226.167,66.5 231.833,66.5 237.5,66.5C 237.5,67.1667 237.5,67.8333 237.5,68.5C 231.5,68.5 225.5,68.5 219.5,68.5C 219.17,48.6596 219.503,28.9929 220.5,9.5 Z"/></g>
<g><path style="opacity:1" fill="#d6d9df" d="M 274.5,17.5 C 275.167,18.5 275.833,19.5 276.5,20.5C 276.932,21.7095 277.599,22.7095 278.5,23.5C 278.5,24.8333 279.167,25.5 280.5,25.5C 280.5,25.8333 280.5,26.1667 280.5,26.5C 280.932,27.7095 281.599,28.7095 282.5,29.5C 284.104,30.287 284.771,31.6203 284.5,33.5C 284.782,34.7777 285.449,35.7777 286.5,36.5C 287.919,37.4511 289.585,37.7845 291.5,37.5C 291.5,28.8333 291.5,20.1667 291.5,11.5C 296.167,11.5 300.833,11.5 305.5,11.5C 305.5,30.1667 305.5,48.8333 305.5,67.5C 300.5,67.5 295.5,67.5 290.5,67.5C 290.5,67.1667 290.5,66.8333 290.5,66.5C 290.5,65.1667 289.833,64.5 288.5,64.5C 288.5,63.1667 287.833,62.5 286.5,62.5C 285.007,58.8453 283.007,55.5119 280.5,52.5C 280.5,51.1667 279.833,50.5 278.5,50.5C 276.896,49.713 276.229,48.3797 276.5,46.5C 275.833,44.5 274.5,43.1667 272.5,42.5C 272.5,41.8333 272.5,41.1667 272.5,40.5C 271.448,38.744 269.781,38.0773 267.5,38.5C 267.5,48.1667 267.5,57.8333 267.5,67.5C 262.5,67.5 257.5,67.5 252.5,67.5C 252.5,48.5 252.5,29.5 252.5,10.5C 257.844,10.334 263.177,10.5006 268.5,11C 270.366,13.3631 272.366,15.5298 274.5,17.5 Z"/></g>
<g><path style="opacity:0.996" fill="#d0d3d9" d="M 290.5,9.5 C 295.833,9.5 301.167,9.5 306.5,9.5C 306.5,29.1667 306.5,48.8333 306.5,68.5C 301.167,68.5 295.833,68.5 290.5,68.5C 290.5,68.1667 290.5,67.8333 290.5,67.5C 295.5,67.5 300.5,67.5 305.5,67.5C 305.5,48.8333 305.5,30.1667 305.5,11.5C 300.833,11.5 296.167,11.5 291.5,11.5C 291.5,20.1667 291.5,28.8333 291.5,37.5C 289.585,37.7845 287.919,37.4511 286.5,36.5C 287.833,36.5 289.167,36.5 290.5,36.5C 290.5,27.5 290.5,18.5 290.5,9.5 Z"/></g>
<g><path style="opacity:0.538" fill="#96989f" d="M 288.5,9.5 C 288.5,9.16667 288.5,8.83333 288.5,8.5C 295.5,8.5 302.5,8.5 309.5,8.5C 309.5,28.8333 309.5,49.1667 309.5,69.5C 303.167,69.5 296.833,69.5 290.5,69.5C 290.5,69.1667 290.5,68.8333 290.5,68.5C 295.833,68.5 301.167,68.5 306.5,68.5C 306.5,48.8333 306.5,29.1667 306.5,9.5C 301.167,9.5 295.833,9.5 290.5,9.5C 289.833,9.5 289.167,9.5 288.5,9.5 Z"/></g>
<g><path style="opacity:0.741" fill="#98999e" d="M 336.5,8.5 C 336.5,8.83333 336.5,9.16667 336.5,9.5C 330.167,9.5 323.833,9.5 317.5,9.5C 317.5,29.1667 317.5,48.8333 317.5,68.5C 323.833,68.5 330.167,68.5 336.5,68.5C 336.5,68.8333 336.5,69.1667 336.5,69.5C 329.5,69.5 322.5,69.5 315.5,69.5C 315.5,49.1667 315.5,28.8333 315.5,8.5C 322.5,8.5 329.5,8.5 336.5,8.5 Z"/></g>
<g><path style="opacity:1" fill="#d6d9df" d="M 336.5,11.5 C 336.5,17.5 336.5,23.5 336.5,29.5C 343.5,29.5 350.5,29.5 357.5,29.5C 357.5,35.8333 357.5,42.1667 357.5,48.5C 350.5,48.5 343.5,48.5 336.5,48.5C 336.5,54.8333 336.5,61.1667 336.5,67.5C 330.833,67.5 325.167,67.5 319.5,67.5C 319.5,48.8333 319.5,30.1667 319.5,11.5C 325.167,11.5 330.833,11.5 336.5,11.5 Z"/></g>
<g><path style="opacity:0.4" fill="#949699" d="M 336.5,9.5 C 336.5,9.16667 336.5,8.83333 336.5,8.5C 337.5,8.5 338.5,8.5 339.5,8.5C 339.5,14.5 339.5,20.5 339.5,26.5C 345.167,26.5 350.833,26.5 356.5,26.5C 356.5,20.5 356.5,14.5 356.5,8.5C 364.167,8.5 371.833,8.5 379.5,8.5C 380.13,16.2428 379.463,23.5762 377.5,30.5C 377.5,30.1667 377.5,29.8333 377.5,29.5C 377.5,29.1667 377.5,28.8333 377.5,28.5C 377.5,22.1667 377.5,15.8333 377.5,9.5C 371.5,9.5 365.5,9.5 359.5,9.5C 357.544,15.412 356.877,21.7453 357.5,28.5C 350.833,28.5 344.167,28.5 337.5,28.5C 337.823,21.9779 337.49,15.6446 336.5,9.5 Z"/></g>
<g><path style="opacity:0.988" fill="#c6c9ce" d="M 359.5,9.5 C 365.5,9.5 371.5,9.5 377.5,9.5C 377.5,15.8333 377.5,22.1667 377.5,28.5C 377.167,28.5 376.833,28.5 376.5,28.5C 376.5,22.8333 376.5,17.1667 376.5,11.5C 370.833,11.5 365.167,11.5 359.5,11.5C 359.5,10.8333 359.5,10.1667 359.5,9.5 Z"/></g>
<g><path style="opacity:1" fill="#d6d9df" d="M 359.5,11.5 C 365.167,11.5 370.833,11.5 376.5,11.5C 376.5,17.1667 376.5,22.8333 376.5,28.5C 370.833,28.5 365.167,28.5 359.5,28.5C 359.5,22.8333 359.5,17.1667 359.5,11.5 Z"/></g>
<g><path style="opacity:0.969" fill="#babcc2" d="M 359.5,9.5 C 359.5,10.1667 359.5,10.8333 359.5,11.5C 359.5,17.1667 359.5,22.8333 359.5,28.5C 358.833,28.5 358.167,28.5 357.5,28.5C 356.877,21.7453 357.544,15.412 359.5,9.5 Z"/></g>
<g><path style="opacity:0.992" fill="#cacdd3" d="M 21.5,9.5 C 41.1667,9.5 60.8333,9.5 80.5,9.5C 80.5,28.5 80.5,47.5 80.5,66.5C 80.1667,66.5 79.8333,66.5 79.5,66.5C 79.5,47.8333 79.5,29.1667 79.5,10.5C 60.5,10.5 41.5,10.5 22.5,10.5C 22.5,29.1667 22.5,47.8333 22.5,66.5C 22.1667,66.5 21.8333,66.5 21.5,66.5C 21.5,47.5 21.5,28.5 21.5,9.5 Z M 42.5,31.5 C 48.1667,31.5 53.8333,31.5 59.5,31.5C 59.5,36.5 59.5,41.5 59.5,46.5C 53.8333,46.5 48.1667,46.5 42.5,46.5C 42.5,41.5 42.5,36.5 42.5,31.5 Z"/></g>
<g><path style="opacity:1" fill="#d6d9df" d="M 79.5,66.5 C 60.5,66.5 41.5,66.5 22.5,66.5C 22.5,47.8333 22.5,29.1667 22.5,10.5C 41.5,10.5 60.5,10.5 79.5,10.5C 79.5,29.1667 79.5,47.8333 79.5,66.5 Z M 42.5,31.5 C 42.5,36.5 42.5,41.5 42.5,46.5C 48.1667,46.5 53.8333,46.5 59.5,46.5C 59.5,41.5 59.5,36.5 59.5,31.5C 53.8333,31.5 48.1667,31.5 42.5,31.5 Z"/></g>
<g><path style="opacity:0.906" fill="#afb2b8" d="M 288.5,9.5 C 289.167,9.5 289.833,9.5 290.5,9.5C 290.5,18.5 290.5,27.5 290.5,36.5C 289.167,36.5 287.833,36.5 286.5,36.5C 285.449,35.7777 284.782,34.7777 284.5,33.5C 285.167,33.5 285.833,33.5 286.5,33.5C 286.56,34.0431 286.893,34.3764 287.5,34.5C 288.498,26.1932 288.831,17.8599 288.5,9.5 Z"/></g>
<g><path style="opacity:0.992" fill="#c2c6cb" d="M 336.5,9.5 C 336.5,10.1667 336.5,10.8333 336.5,11.5C 330.833,11.5 325.167,11.5 319.5,11.5C 319.5,30.1667 319.5,48.8333 319.5,67.5C 325.167,67.5 330.833,67.5 336.5,67.5C 336.5,67.8333 336.5,68.1667 336.5,68.5C 330.167,68.5 323.833,68.5 317.5,68.5C 317.5,48.8333 317.5,29.1667 317.5,9.5C 323.833,9.5 330.167,9.5 336.5,9.5 Z"/></g>
<g><path style="opacity:0.753" fill="#9ea0a7" d="M 92.5,9.5 C 92.5,29.1667 92.5,48.8333 92.5,68.5C 91.7784,68.0825 91.2784,67.4158 91,66.5C 90.3333,48.1667 90.3333,29.8333 91,11.5C 91.2784,10.5842 91.7784,9.91753 92.5,9.5 Z"/></g>
<g><path style="opacity:0.278" fill="#97989d" d="M 287.5,30.5 C 287.443,31.609 287.11,32.609 286.5,33.5C 285.833,33.5 285.167,33.5 284.5,33.5C 284.771,31.6203 284.104,30.287 282.5,29.5C 282.715,27.8212 282.048,26.8212 280.5,26.5C 280.5,26.1667 280.5,25.8333 280.5,25.5C 279.167,25.5 278.5,24.8333 278.5,23.5C 278.715,21.8212 278.048,20.8212 276.5,20.5C 275.833,19.5 275.167,18.5 274.5,17.5C 273.493,14.6417 271.827,12.1417 269.5,10C 263.509,9.50051 257.509,9.33385 251.5,9.5C 251.17,29.3404 251.503,49.0071 252.5,68.5C 252.5,68.8333 252.5,69.1667 252.5,69.5C 251.127,69.6567 249.793,69.49 248.5,69C 248.19,49.2696 248.524,29.4363 249.5,9.5C 257.167,8.16667 264.833,8.16667 272.5,9.5C 277.678,16.4366 282.678,23.4366 287.5,30.5 Z"/></g>
<g><path style="opacity:0.961" fill="#b2b5ba" d="M 276.5,20.5 C 278.048,20.8212 278.715,21.8212 278.5,23.5C 277.599,22.7095 276.932,21.7095 276.5,20.5 Z"/></g>
<g><path style="opacity:0.945" fill="#b6b8be" d="M 278.5,23.5 C 279.833,23.5 280.5,24.1667 280.5,25.5C 280.5,24.1667 279.833,23.5 278.5,23.5 Z"/></g>
<g><path style="opacity:0.043" fill="#909193" d="M 112.5,8.5 C 113.49,14.31 113.823,20.31 113.5,26.5C 118.833,26.5 124.167,26.5 129.5,26.5C 129.177,20.31 129.51,14.31 130.5,8.5C 130.5,15.1667 130.5,21.8333 130.5,28.5C 124.5,28.5 118.5,28.5 112.5,28.5C 112.5,21.8333 112.5,15.1667 112.5,8.5 Z"/></g>
<g><path style="opacity:0.988" fill="#bcbfc4" d="M 280.5,26.5 C 282.048,26.8212 282.715,27.8212 282.5,29.5C 281.599,28.7095 280.932,27.7095 280.5,26.5 Z"/></g>
<g><path style="opacity:0.741" fill="#a4a5ac" d="M 336.5,9.5 C 337.49,15.6446 337.823,21.9779 337.5,28.5C 344.167,28.5 350.833,28.5 357.5,28.5C 358.167,28.5 358.833,28.5 359.5,28.5C 365.167,28.5 370.833,28.5 376.5,28.5C 376.833,28.5 377.167,28.5 377.5,28.5C 377.5,28.8333 377.5,29.1667 377.5,29.5C 370.833,29.5 364.167,29.5 357.5,29.5C 350.5,29.5 343.5,29.5 336.5,29.5C 336.5,23.5 336.5,17.5 336.5,11.5C 336.5,10.8333 336.5,10.1667 336.5,9.5 Z"/></g>
<g><path style="opacity:0.892" fill="#abaeb4" d="M 41.5,29.5 C 41.5,29.1667 41.5,28.8333 41.5,28.5C 48.5,28.5 55.5,28.5 62.5,28.5C 62.5,35.5 62.5,42.5 62.5,49.5C 55.5,49.5 48.5,49.5 41.5,49.5C 41.5,49.1667 41.5,48.8333 41.5,48.5C 48.1667,48.5 54.8333,48.5 61.5,48.5C 61.5,42.1667 61.5,35.8333 61.5,29.5C 54.8333,29.5 48.1667,29.5 41.5,29.5 Z"/></g>
<g><path style="opacity:0.043" fill="#919294" d="M 41.5,29.5 C 48.1667,29.5 54.8333,29.5 61.5,29.5C 61.5,35.8333 61.5,42.1667 61.5,48.5C 54.8333,48.5 48.1667,48.5 41.5,48.5C 41.5,42.1667 41.5,35.8333 41.5,29.5 Z M 42.5,31.5 C 42.5,36.5 42.5,41.5 42.5,46.5C 48.1667,46.5 53.8333,46.5 59.5,46.5C 59.5,41.5 59.5,36.5 59.5,31.5C 53.8333,31.5 48.1667,31.5 42.5,31.5 Z"/></g>
<g><path style="opacity:0.043" fill="#929294" d="M 357.5,29.5 C 364.167,29.5 370.833,29.5 377.5,29.5C 377.5,29.8333 377.5,30.1667 377.5,30.5C 372.025,31.4889 366.358,31.8222 360.5,31.5C 360.5,36.5 360.5,41.5 360.5,46.5C 366.176,46.3339 371.843,46.5006 377.5,47C 378.416,47.2784 379.082,47.7784 379.5,48.5C 378.833,48.5 378.167,48.5 377.5,48.5C 370.833,48.5 364.167,48.5 357.5,48.5C 357.5,42.1667 357.5,35.8333 357.5,29.5 Z"/></g>
<g><path style="opacity:0.918" fill="#b9bbc1" d="M 41.5,28.5 C 41.5,28.8333 41.5,29.1667 41.5,29.5C 41.5,35.8333 41.5,42.1667 41.5,48.5C 41.5,48.8333 41.5,49.1667 41.5,49.5C 40.179,46.4018 39.5123,42.9018 39.5,39C 39.5123,35.0982 40.179,31.5982 41.5,28.5 Z"/></g>
<g><path style="opacity:0.843" fill="#adafb5" d="M 130.5,29.5 C 131.167,29.5 131.833,29.5 132.5,29.5C 132.5,35.5 132.5,41.5 132.5,47.5C 131.833,47.5 131.167,47.5 130.5,47.5C 130.5,41.5 130.5,35.5 130.5,29.5 Z"/></g>
<g><path style="opacity:0.988" fill="#c7cad0" d="M 272.5,40.5 C 271.417,40.4606 270.417,40.1272 269.5,39.5C 268.502,48.8096 268.168,58.1429 268.5,67.5C 263.36,68.4881 258.026,68.8214 252.5,68.5C 252.5,68.1667 252.5,67.8333 252.5,67.5C 257.5,67.5 262.5,67.5 267.5,67.5C 267.5,57.8333 267.5,48.1667 267.5,38.5C 269.781,38.0773 271.448,38.744 272.5,40.5 Z"/></g>
<g><path style="opacity:0.811" fill="#a7a9af" d="M 272.5,40.5 C 272.5,41.1667 272.5,41.8333 272.5,42.5C 271.833,42.1667 271.167,41.8333 270.5,41.5C 269.833,50.1667 269.167,58.8333 268.5,67.5C 268.168,58.1429 268.502,48.8096 269.5,39.5C 270.417,40.1272 271.417,40.4606 272.5,40.5 Z"/></g>
<g><path style="opacity:0.651" fill="#9c9ea3" d="M 270.5,41.5 C 270.174,50.3494 270.507,59.0161 271.5,67.5C 265.588,69.4563 259.255,70.1229 252.5,69.5C 252.5,69.1667 252.5,68.8333 252.5,68.5C 258.026,68.8214 263.36,68.4881 268.5,67.5C 269.167,58.8333 269.833,50.1667 270.5,41.5 Z"/></g>
<g><path style="opacity:0.961" fill="#b5b8bd" d="M 272.5,42.5 C 274.5,43.1667 275.833,44.5 276.5,46.5C 274.29,46.106 272.957,44.7727 272.5,42.5 Z"/></g>
<g><path style="opacity:0.09" fill="#8f9091" d="M 132.5,29.5 C 139.354,29.176 146.021,29.5093 152.5,30.5C 146.355,31.4902 140.022,31.8235 133.5,31.5C 133.5,36.5 133.5,41.5 133.5,46.5C 139.842,46.3338 146.175,46.5005 152.5,47C 153.056,47.3826 153.389,47.8826 153.5,48.5C 152.5,48.5 151.5,48.5 150.5,48.5C 144.31,48.8229 138.31,48.4896 132.5,47.5C 132.5,41.5 132.5,35.5 132.5,29.5 Z"/></g>
<g><path style="opacity:0.761" fill="#a4a6ac" d="M 357.5,48.5 C 364.167,48.5 370.833,48.5 377.5,48.5C 377.5,48.8333 377.5,49.1667 377.5,49.5C 377.167,49.5 376.833,49.5 376.5,49.5C 370.833,49.5 365.167,49.5 359.5,49.5C 358.833,49.5 358.167,49.5 357.5,49.5C 350.833,49.5 344.167,49.5 337.5,49.5C 337.823,56.0221 337.49,62.3554 336.5,68.5C 336.5,68.1667 336.5,67.8333 336.5,67.5C 336.5,61.1667 336.5,54.8333 336.5,48.5C 343.5,48.5 350.5,48.5 357.5,48.5 Z"/></g>
<g><path style="opacity:0.906" fill="#b2b5bb" d="M 112.5,48.5 C 112.5,48.8333 112.5,49.1667 112.5,49.5C 111.833,55.1667 111.167,60.8333 110.5,66.5C 110.5,60.8333 110.5,55.1667 110.5,49.5C 110.842,48.6618 111.508,48.3284 112.5,48.5 Z"/></g>
<g><path style="opacity:0.812" fill="#aaacb2" d="M 207.5,49.5 C 208.818,52.2575 209.485,55.4242 209.5,59C 209.485,62.5758 208.818,65.7425 207.5,68.5C 207.5,68.1667 207.5,67.8333 207.5,67.5C 207.5,61.5 207.5,55.5 207.5,49.5 Z"/></g>
<g><path style="opacity:0.176" fill="#8e8f93" d="M 186.5,46.5 C 194.196,46.1692 201.862,46.5025 209.5,47.5C 211.416,54.6237 212.083,61.9571 211.5,69.5C 210.167,69.5 208.833,69.5 207.5,69.5C 207.5,69.1667 207.5,68.8333 207.5,68.5C 208.818,65.7425 209.485,62.5758 209.5,59C 209.485,55.4242 208.818,52.2575 207.5,49.5C 200.352,48.5084 193.019,48.175 185.5,48.5C 185.328,47.5084 185.662,46.8417 186.5,46.5 Z"/></g>
<g><path style="opacity:0.231" fill="#929396" d="M 357.5,49.5 C 357.177,56.0221 357.51,62.3554 358.5,68.5C 358.5,68.8333 358.5,69.1667 358.5,69.5C 356.547,63.9262 355.88,57.9262 356.5,51.5C 350.833,51.5 345.167,51.5 339.5,51.5C 339.5,57.5 339.5,63.5 339.5,69.5C 338.5,69.5 337.5,69.5 336.5,69.5C 336.5,69.1667 336.5,68.8333 336.5,68.5C 337.49,62.3554 337.823,56.0221 337.5,49.5C 344.167,49.5 350.833,49.5 357.5,49.5 Z"/></g>
<g><path style="opacity:1" fill="#d6d9df" d="M 359.5,49.5 C 365.167,49.5 370.833,49.5 376.5,49.5C 376.5,55.5 376.5,61.5 376.5,67.5C 370.833,67.5 365.167,67.5 359.5,67.5C 359.5,61.5 359.5,55.5 359.5,49.5 Z"/></g>
<g><path style="opacity:0.031" fill="#8f9092" d="M 112.5,49.5 C 118.5,49.5 124.5,49.5 130.5,49.5C 130.5,56.1667 130.5,62.8333 130.5,69.5C 129.51,63.69 129.177,57.69 129.5,51.5C 124.167,51.5 118.833,51.5 113.5,51.5C 113.823,57.69 113.49,63.69 112.5,69.5C 112.5,62.8333 112.5,56.1667 112.5,49.5 Z"/></g>
<g><path style="opacity:0.635" fill="#9ea0a6" d="M 130.5,47.5 C 131.167,47.5 131.833,47.5 132.5,47.5C 138.31,48.4896 144.31,48.8229 150.5,48.5C 150.5,48.8333 150.5,49.1667 150.5,49.5C 144.833,49.5 139.167,49.5 133.5,49.5C 132.511,54.9753 132.178,60.642 132.5,66.5C 131.833,60.8333 131.167,55.1667 130.5,49.5C 124.5,49.5 118.5,49.5 112.5,49.5C 112.5,49.1667 112.5,48.8333 112.5,48.5C 118.69,48.8229 124.69,48.4896 130.5,47.5 Z"/></g>
<g><path style="opacity:0.929" fill="#b7b9bf" d="M 278.5,50.5 C 279.833,50.5 280.5,51.1667 280.5,52.5C 279.167,52.5 278.5,51.8333 278.5,50.5 Z"/></g>
<g><path style="opacity:0.969" fill="#babdc2" d="M 357.5,49.5 C 358.167,49.5 358.833,49.5 359.5,49.5C 359.5,55.5 359.5,61.5 359.5,67.5C 359.5,67.8333 359.5,68.1667 359.5,68.5C 359.167,68.5 358.833,68.5 358.5,68.5C 357.51,62.3554 357.177,56.0221 357.5,49.5 Z"/></g>
<g><path style="opacity:0.4" fill="#95989c" d="M 377.5,48.5 C 378.167,48.5 378.833,48.5 379.5,48.5C 379.5,55.5 379.5,62.5 379.5,69.5C 372.5,69.5 365.5,69.5 358.5,69.5C 358.5,69.1667 358.5,68.8333 358.5,68.5C 358.833,68.5 359.167,68.5 359.5,68.5C 365.5,68.5 371.5,68.5 377.5,68.5C 377.5,62.1667 377.5,55.8333 377.5,49.5C 377.5,49.1667 377.5,48.8333 377.5,48.5 Z"/></g>
<g><path style="opacity:0.808" fill="#a9acb2" d="M 286.5,62.5 C 287.833,62.5 288.5,63.1667 288.5,64.5C 287.167,64.5 286.5,63.8333 286.5,62.5 Z"/></g>
<g><path style="opacity:0.945" fill="#b9bbc0" d="M 288.5,64.5 C 289.833,64.5 290.5,65.1667 290.5,66.5C 289.167,66.5 288.5,65.8333 288.5,64.5 Z"/></g>
<g><path style="opacity:0.988" fill="#cbced3" d="M 206.5,49.5 C 206.833,49.5 207.167,49.5 207.5,49.5C 207.5,55.5 207.5,61.5 207.5,67.5C 193.323,67.8291 179.323,67.4958 165.5,66.5C 165.833,66.5 166.167,66.5 166.5,66.5C 179.833,66.5 193.167,66.5 206.5,66.5C 206.5,60.8333 206.5,55.1667 206.5,49.5 Z"/></g>
<g><path style="opacity:0.969" fill="#c2c5ca" d="M 21.5,66.5 C 21.8333,66.5 22.1667,66.5 22.5,66.5C 41.5,66.5 60.5,66.5 79.5,66.5C 79.8333,66.5 80.1667,66.5 80.5,66.5C 61.1951,68.4878 41.5284,69.1545 21.5,68.5C 21.5,67.8333 21.5,67.1667 21.5,66.5 Z"/></g>
<g><path style="opacity:0.969" fill="#bbbec3" d="M 164.5,9.5 C 164.833,9.5 165.167,9.5 165.5,9.5C 165.5,28.5 165.5,47.5 165.5,66.5C 179.323,67.4958 193.323,67.8291 207.5,67.5C 207.5,67.8333 207.5,68.1667 207.5,68.5C 193.167,68.5 178.833,68.5 164.5,68.5C 164.5,48.8333 164.5,29.1667 164.5,9.5 Z"/></g>
<g><path style="opacity:0.314" fill="#8f9096" d="M 270.5,41.5 C 271.167,41.8333 271.833,42.1667 272.5,42.5C 272.957,44.7727 274.29,46.106 276.5,46.5C 276.229,48.3797 276.896,49.713 278.5,50.5C 278.5,51.8333 279.167,52.5 280.5,52.5C 283.007,55.5119 285.007,58.8453 286.5,62.5C 286.5,63.8333 287.167,64.5 288.5,64.5C 288.5,65.8333 289.167,66.5 290.5,66.5C 290.5,66.8333 290.5,67.1667 290.5,67.5C 290.5,67.8333 290.5,68.1667 290.5,68.5C 290.5,68.8333 290.5,69.1667 290.5,69.5C 289.325,69.719 288.325,69.3857 287.5,68.5C 282.576,60.9816 277.409,53.6483 272,46.5C 271.5,53.4921 271.334,60.4921 271.5,67.5C 270.507,59.0161 270.174,50.3494 270.5,41.5 Z"/></g>
<g><path style="opacity:0.992" fill="#cacdd3" d="M 376.5,49.5 C 376.833,49.5 377.167,49.5 377.5,49.5C 377.5,55.8333 377.5,62.1667 377.5,68.5C 371.5,68.5 365.5,68.5 359.5,68.5C 359.5,68.1667 359.5,67.8333 359.5,67.5C 365.167,67.5 370.833,67.5 376.5,67.5C 376.5,61.5 376.5,55.5 376.5,49.5 Z"/></g>
<g><path style="opacity:0.65" fill="#9fa1a7" d="M 112.5,49.5 C 112.5,56.1667 112.5,62.8333 112.5,69.5C 105.833,69.5 99.1667,69.5 92.5,69.5C 92.5,69.1667 92.5,68.8333 92.5,68.5C 98.9262,69.12 104.926,68.4533 110.5,66.5C 111.167,60.8333 111.833,55.1667 112.5,49.5 Z"/></g>
<g><path style="opacity:0.649" fill="#97989e" d="M 150.5,49.5 C 150.5,49.1667 150.5,48.8333 150.5,48.5C 151.5,48.5 152.5,48.5 153.5,48.5C 153.5,55.5 153.5,62.5 153.5,69.5C 145.833,69.5 138.167,69.5 130.5,69.5C 130.5,62.8333 130.5,56.1667 130.5,49.5C 131.167,55.1667 131.833,60.8333 132.5,66.5C 138.074,68.4533 144.074,69.12 150.5,68.5C 151.818,65.7425 152.485,62.5758 152.5,59C 152.498,55.6482 152.165,52.4815 151.5,49.5C 151.167,49.5 150.833,49.5 150.5,49.5 Z"/></g>
<g><path style="opacity:0.969" fill="#bfc2c7" d="M 133.5,49.5 C 133.5,55.1667 133.5,60.8333 133.5,66.5C 139.167,66.5 144.833,66.5 150.5,66.5C 150.5,60.8333 150.5,55.1667 150.5,49.5C 150.833,49.5 151.167,49.5 151.5,49.5C 151.791,55.923 151.458,62.2564 150.5,68.5C 144.074,69.12 138.074,68.4533 132.5,66.5C 132.178,60.642 132.511,54.9753 133.5,49.5 Z"/></g>
<g><path style="opacity:0.787" fill="#a3a5ac" d="M 151.5,49.5 C 152.165,52.4815 152.498,55.6482 152.5,59C 152.485,62.5758 151.818,65.7425 150.5,68.5C 151.458,62.2564 151.791,55.923 151.5,49.5 Z"/></g>
<g><path style="opacity:1" fill="#d6d9df" d="M 133.5,49.5 C 139.167,49.5 144.833,49.5 150.5,49.5C 150.5,55.1667 150.5,60.8333 150.5,66.5C 144.833,66.5 139.167,66.5 133.5,66.5C 133.5,60.8333 133.5,55.1667 133.5,49.5 Z"/></g>
</svg>
