<?xml version="1.0" encoding="UTF-8"?>
<!DOCTYPE svg PUBLIC "-//W3C//DTD SVG 1.1//EN" "http://www.w3.org/Graphics/SVG/1.1/DTD/svg11.dtd">
<svg xmlns="http://www.w3.org/2000/svg" version="1.1" width="400px" height="80px" style="shape-rendering:geometricPrecision; text-rendering:geometricPrecision; image-rendering:optimizeQuality; fill-rule:evenodd; clip-rule:evenodd" xmlns:xlink="http://www.w3.org/1999/xlink">
<g><path style="opacity:0.888" fill="#35363b" d="M 19.5,8.5 C 40.8333,8.5 62.1667,8.5 83.5,8.5C 83.5,28.8333 83.5,49.1667 83.5,69.5C 62.1667,69.5 40.8333,69.5 19.5,69.5C 19.5,49.1667 19.5,28.8333 19.5,8.5 Z M 42.5,31.5 C 48.1667,31.5 53.8333,31.5 59.5,31.5C 59.5,36.5 59.5,41.5 59.5,46.5C 53.8333,46.5 48.1667,46.5 42.5,46.5C 42.5,41.5 42.5,36.5 42.5,31.5 Z"/></g>
<g><path style="opacity:0.857" fill="#35363b" d="M 133.5,46.5 C 139.567,47.1847 145.734,47.8514 152,48.5C 152.399,48.2716 152.565,47.9382 152.5,47.5C 153.492,54.6476 153.825,61.9809 153.5,69.5C 145.833,69.5 138.167,69.5 130.5,69.5C 130.666,63.1579 130.5,56.8246 130,50.5C 127.254,49.8568 124.421,49.5235 121.5,49.5C 118.41,49.5217 115.743,50.1883 113.5,51.5C 113.5,57.5 113.5,63.5 113.5,69.5C 105.5,69.5 97.5,69.5 89.5,69.5C 89.5,49.1667 89.5,28.8333 89.5,8.5C 97.5,8.5 105.5,8.5 113.5,8.5C 113.5,14.5 113.5,20.5 113.5,26.5C 118.833,26.5 124.167,26.5 129.5,26.5C 129.5,20.5 129.5,14.5 129.5,8.5C 137.5,8.5 145.5,8.5 153.5,8.5C 153.666,15.8409 153.5,23.1742 153,30.5C 146.59,31.4777 140.09,31.811 133.5,31.5C 133.5,36.5 133.5,41.5 133.5,46.5 Z"/></g>
<g><path style="opacity:0.869" fill="#35363b" d="M 210.5,48.5 C 210.398,55.4153 210.398,62.0819 210.5,68.5C 194.675,69.4964 178.675,69.8297 162.5,69.5C 162.5,49.1667 162.5,28.8333 162.5,8.5C 170.5,8.5 178.5,8.5 186.5,8.5C 186.5,21.1667 186.5,33.8333 186.5,46.5C 194.772,45.9154 202.772,46.5821 210.5,48.5 Z"/></g>
<g><path style="opacity:0.883" fill="#36363b" d="M 216.5,8.5 C 224.939,7.88397 233.106,8.55063 241,10.5C 241.797,30.1976 241.63,49.8643 240.5,69.5C 232.58,69.815 224.747,69.4817 217,68.5C 216.5,48.5028 216.333,28.5028 216.5,8.5 Z"/></g>
<g><path style="opacity:0.873" fill="#35363b" d="M 286.5,30.5 C 286.783,31.2891 287.283,31.9558 288,32.5C 288.821,25.3209 288.655,18.3209 287.5,11.5C 287.5,10.5 287.5,9.5 287.5,8.5C 294.833,8.5 302.167,8.5 309.5,8.5C 309.5,28.8333 309.5,49.1667 309.5,69.5C 302.137,69.8306 294.803,69.4973 287.5,68.5C 282.576,60.9816 277.409,53.6483 272,46.5C 271.5,54.1594 271.334,61.8261 271.5,69.5C 263.826,69.6664 256.159,69.4997 248.5,69C 248.37,49.6463 248.536,30.1463 249,10.5C 252.74,9.20613 256.74,8.53946 261,8.5C 264.833,8.83333 268.667,9.16667 272.5,9.5C 277.797,16.1129 282.464,23.1129 286.5,30.5 Z"/></g>
<g><path style="opacity:0.837" fill="#35363b" d="M 356.5,51.5 C 354.085,50.1858 351.252,49.5191 348,49.5C 344.748,49.5191 341.915,50.1858 339.5,51.5C 339.5,57.5 339.5,63.5 339.5,69.5C 331.5,69.5 323.5,69.5 315.5,69.5C 315.5,49.1667 315.5,28.8333 315.5,8.5C 323.5,8.5 331.5,8.5 339.5,8.5C 339.5,14.5 339.5,20.5 339.5,26.5C 345.167,26.5 350.833,26.5 356.5,26.5C 356.5,20.5 356.5,14.5 356.5,8.5C 364.167,8.5 371.833,8.5 379.5,8.5C 379.831,15.8635 379.497,23.1968 378.5,30.5C 372.561,31.4571 366.561,31.7904 360.5,31.5C 360.5,36.5 360.5,41.5 360.5,46.5C 366.561,46.2096 372.561,46.5429 378.5,47.5C 379.497,54.8032 379.831,62.1365 379.5,69.5C 371.833,69.5 364.167,69.5 356.5,69.5C 356.5,63.5 356.5,57.5 356.5,51.5 Z"/></g>
<g><path style="opacity:0.086" fill="#2f2f38" d="M 287.5,11.5 C 288.655,18.3209 288.821,25.3209 288,32.5C 287.283,31.9558 286.783,31.2891 286.5,30.5C 287.49,24.3554 287.823,18.0221 287.5,11.5 Z"/></g>
<g><path style="opacity:0.024" fill="#29292b" d="M 133.5,46.5 C 140.022,46.1765 146.355,46.5098 152.5,47.5C 152.565,47.9382 152.399,48.2716 152,48.5C 145.734,47.8514 139.567,47.1847 133.5,46.5 Z"/></g>
<g><path style="opacity:0.021" fill="#353537" d="M 210.5,48.5 C 211.833,55.1667 211.833,61.8333 210.5,68.5C 210.398,62.0819 210.398,55.4153 210.5,48.5 Z"/></g>
<g><path style="opacity:0.016" fill="#313132" d="M 356.5,51.5 C 350.833,51.5 345.167,51.5 339.5,51.5C 341.915,50.1858 344.748,49.5191 348,49.5C 351.252,49.5191 354.085,50.1858 356.5,51.5 Z"/></g>
<g><path style="opacity:0.016" fill="#323233" d="M 130.5,69.5 C 129.51,63.69 129.177,57.69 129.5,51.5C 124.167,51.5 118.833,51.5 113.5,51.5C 115.743,50.1883 118.41,49.5217 121.5,49.5C 124.421,49.5235 127.254,49.8568 130,50.5C 130.5,56.8246 130.666,63.1579 130.5,69.5 Z"/></g>
</svg>
