<svg width="29" height="28" viewBox="0 0 29 28" fill="none" xmlns="http://www.w3.org/2000/svg">
<path d="M0.0175781 14C0.0175781 6.26801 6.28559 0 14.0176 0V0C21.7496 0 28.0176 6.26801 28.0176 14V14C28.0176 21.732 21.7496 28 14.0176 28V28C6.28559 28 0.0175781 21.732 0.0175781 14V14Z" fill="#DAFFF4"/>
<path fill-rule="evenodd" clip-rule="evenodd" d="M12.9847 9.63364V13.2171H15.0806V9.63364C15.0806 7.92145 16.4686 6.53345 18.1808 6.53345C19.893 6.53345 21.281 7.92145 21.281 9.63364V18.3666C21.281 20.0788 19.893 21.4668 18.1808 21.4668C16.4686 21.4668 15.0806 20.0788 15.0806 18.3666V14.527H12.9847V18.3666C12.9847 20.0788 11.5967 21.4668 9.8845 21.4668C8.17231 21.4668 6.7843 20.0788 6.7843 18.3666V9.63364C6.7843 7.92145 8.17231 6.53345 9.8845 6.53345C11.5967 6.53345 12.9847 7.92145 12.9847 9.63364ZM11.6747 9.63364V13.2537C10.9938 13.3434 9.90854 13.626 8.77673 14.4824C8.52181 14.6753 8.29531 14.8707 8.09424 15.0644V9.63364C8.09424 8.64491 8.89577 7.84339 9.8845 7.84339C10.8732 7.84339 11.6747 8.64491 11.6747 9.63364ZM16.3905 13.2752C16.4884 13.2639 16.5988 13.2479 16.7197 13.2254C17.2429 13.1279 17.9563 12.9093 18.7016 12.4235C19.3182 12.0217 19.717 11.6181 19.971 11.2927V9.63364C19.971 8.64491 19.1695 7.84339 18.1808 7.84339C17.1921 7.84339 16.3905 8.64491 16.3905 9.63364V13.2752ZM19.971 13.1238C19.8028 13.2566 19.6185 13.3895 19.4169 13.5209C18.5002 14.1184 17.6174 14.3906 16.9597 14.5132C16.7443 14.5533 16.5524 14.5775 16.3905 14.5919V18.3666C16.3905 19.3553 17.1921 20.1568 18.1808 20.1568C19.1695 20.1568 19.971 19.3553 19.971 18.3666V13.1238ZM9.56715 15.527C10.3848 14.9084 11.1596 14.6696 11.6747 14.5787V18.3666C11.6747 19.3553 10.8732 20.1568 9.8845 20.1568C8.89577 20.1568 8.09424 19.3553 8.09424 18.3666V17.0432C8.16969 16.9957 8.23661 16.932 8.28938 16.8531C8.54738 16.4673 8.94939 15.9945 9.56715 15.527Z" fill="url(#paint0_linear_726_1264)"/>
<defs>
<linearGradient id="paint0_linear_726_1264" x1="20.4514" y1="7.84339" x2="6.7843" y2="20.7245" gradientUnits="userSpaceOnUse">
<stop stop-color="#00E8A2"/>
<stop offset="1" stop-color="#00B0E4"/>
</linearGradient>
</defs>
</svg>
